Coordinates
version=1
nRows=40
nColumns=38
inDegrees=no

Units are S.I. units (second, meters, Newtons, ...)
If the header above contains a line with 'inDegrees', this indicates whether rotational values are in degrees (yes) or radians (no).

endheader
time	pelvis_tilt	pelvis_list	pelvis_rotation	pelvis_tx	pelvis_ty	pelvis_tz	hip_flexion_r	hip_adduction_r	hip_rotation_r	knee_angle_r	ankle_angle_r	subtalar_angle_r	mtp_angle_r	hip_flexion_l	hip_adduction_l	hip_rotation_l	knee_angle_l	ankle_angle_l	subtalar_angle_l	mtp_angle_l	lumbar_extension	lumbar_bending	lumbar_rotation	arm_flex_r	arm_add_r	arm_rot_r	elbow_flex_r	pro_sup_r	wrist_flex_r	wrist_dev_r	arm_flex_l	arm_add_l	arm_rot_l	elbow_flex_l	pro_sup_l	wrist_flex_l	wrist_dev_l
1.43	0.0489116	1.3381	-1.53983	0.793088	0.244096	0.937968	-0.295933	-0.120566	-0.280876	0.932475	-0.475541	0	0	0.00115414	-0.0070007	-0.423158	0.447822	-0.215618	0	0	-0.366597	-0.0441332	-0.168914	-0.136751	-0.373509	0.413647	0.719614	0.982369	0	0	-0.421041	-0.357949	-0.151194	0.965929	1.5677	0	0
1.44	0.0575008	1.33568	-1.54666	0.794621	0.233747	0.939071	-0.265673	-0.131991	-0.278439	0.986529	-0.490253	0	0	-0.017226	-0.00367894	-0.423572	0.442201	-0.211407	0	0	-0.370082	-0.0447195	-0.174117	-0.139116	-0.372886	0.402094	0.724781	0.995907	0	0	-0.421086	-0.361675	-0.15188	0.972581	1.5708	0	0
1.45	0.0684369	1.33891	-1.55692	0.794916	0.223137	0.939214	-0.250115	-0.108267	-0.266214	0.983069	-0.502651	0	0	-0.0282649	-0.00285455	-0.425362	0.440888	-0.205309	0	0	-0.364926	-0.0482708	-0.178532	-0.140788	-0.374505	0.405888	0.730403	0.990891	0	0	-0.424024	-0.369054	-0.152264	0.980978	1.5708	0	0
1.46	0.0567319	1.33511	-1.54365	0.796302	0.213271	0.940627	-0.222835	-0.112414	-0.26302	1.0243	-0.525558	0	0	-0.0477342	-0.00538058	-0.42455	0.433658	-0.197354	0	0	-0.370056	-0.0435971	-0.183132	-0.138317	-0.380568	0.412704	0.737235	0.982474	0	0	-0.421579	-0.375118	-0.147654	0.987368	1.5708	0	0
1.47	0.0414548	1.33105	-1.52668	0.797619	0.203612	0.942269	-0.196506	-0.11537	-0.259102	1.06301	-0.522848	0	0	-0.0675036	-0.00906876	-0.422783	0.424857	-0.194077	0	0	-0.375487	-0.0374681	-0.187693	-0.134574	-0.385946	0.418846	0.742044	0.975616	0	0	-0.416383	-0.379782	-0.14523	0.992225	1.5708	0	0
1.48	0.0252269	1.32739	-1.50862	0.79885	0.194075	0.944033	-0.170817	-0.117638	-0.255085	1.09799	-0.496799	0	0	-0.0871265	-0.0130274	-0.420189	0.414844	-0.19205	0	0	-0.38025	-0.031087	-0.19202	-0.129965	-0.390957	0.4261	0.745199	0.968676	0	0	-0.409663	-0.384688	-0.141774	0.995354	1.5708	0	0
1.49	0.00944141	1.32563	-1.49116	0.799991	0.184582	0.945734	-0.143818	-0.119675	-0.251341	1.12995	-0.439296	0	0	-0.105298	-0.0163748	-0.416923	0.403731	-0.18972	0	0	-0.38422	-0.0249767	-0.188352	-0.149093	-0.365415	0.332749	0.746424	1.07261	0	0	-0.395492	-0.395552	-0.124733	0.996352	1.56925	0	0
1.5	-0.00771804	1.32307	-1.47221	0.801115	0.175279	0.947401	-0.118771	-0.120731	-0.248802	1.15533	-0.391417	0	0	-0.124499	-0.0199819	-0.413545	0.39281	-0.186299	0	0	-0.385869	-0.018434	-0.197336	-0.126463	-0.393078	0.416626	0.748314	0.981664	0	0	-0.392047	-0.397314	-0.129088	0.999093	1.5708	0	0
1.51	-0.0281788	1.32114	-1.44977	0.802231	0.166027	0.948973	-0.0938779	-0.120043	-0.246982	1.17192	-0.387681	0	0	-0.1425	-0.0247943	-0.4119	0.383633	-0.184677	0	0	-0.38847	-0.0109504	-0.201217	-0.12151	-0.396761	0.421191	0.749112	0.978902	0	0	-0.383782	-0.401356	-0.127689	1.00272	1.5708	0	0
1.52	-0.049405	1.32188	-1.42647	0.803274	0.156808	0.950252	-0.0663414	-0.118784	-0.245123	1.18601	-0.357425	0	0	-0.157929	-0.0283212	-0.405416	0.372029	-0.179719	0	0	-0.387424	-0.00346287	-0.204611	-0.11522	-0.402707	0.434166	0.748736	0.967859	0	0	-0.374147	-0.405835	-0.124747	1.0051	1.5708	0	0
1.53	-0.0714646	1.32545	-1.40314	0.804055	0.14765	0.951112	-0.0343747	-0.113548	-0.241931	1.20148	-0.322331	0	0	-0.169199	-0.0320395	-0.399272	0.362168	-0.17458	0	0	-0.382981	0.0030799	-0.206813	-0.10893	-0.408175	0.448277	0.746825	0.955642	0	0	-0.364259	-0.410716	-0.121493	1.00707	1.5708	0	0
1.54	-0.104844	1.33064	-1.36995	0.805753	0.139366	0.952309	0.0398893	-0.141544	-0.226622	1.27841	-0.339404	0	0	-0.176774	-0.0351386	-0.390463	0.349971	-0.173507	0	0	-0.37889	0.0139005	-0.206244	-0.0990043	-0.415603	0.463004	0.741685	0.943468	0	0	-0.347165	-0.410836	-0.117353	1.00337	1.5708	0	0
1.55	-0.130098	1.32996	-1.33991	0.806832	0.130393	0.95334	0.066297	-0.135452	-0.223729	1.27909	-0.328389	0	0	-0.190309	-0.0419724	-0.384665	0.341652	-0.171931	0	0	-0.379253	0.0229459	-0.209778	-0.0951371	-0.41903	0.467967	0.740463	0.940097	0	0	-0.335888	-0.414925	-0.116091	1.00822	1.5708	0	0
1.56	-0.152732	1.32934	-1.31251	0.80789	0.121501	0.954164	0.0900248	-0.129973	-0.223763	1.27221	-0.312625	0	0	-0.203552	-0.0481607	-0.378387	0.33323	-0.169738	0	0	-0.379584	0.0312785	-0.213008	-0.0917116	-0.422463	0.472382	0.739515	0.937026	0	0	-0.324291	-0.418641	-0.115792	1.01422	1.5708	0	0
1.57	-0.173557	1.32859	-1.28858	0.808752	0.112594	0.954794	0.112744	-0.124859	-0.22428	1.2614	-0.294938	0	0	-0.217273	-0.0538349	-0.375547	0.325061	-0.167012	0	0	-0.380187	0.0385703	-0.214931	-0.088721	-0.426029	0.47617	0.739326	0.93427	0	0	-0.313336	-0.421531	-0.117622	1.02155	1.5708	0	0
1.58	-0.191442	1.32626	-1.26829	0.809504	0.10386	0.955351	0.133106	-0.11971	-0.225634	1.2466	-0.27677	0	0	-0.232889	-0.0592672	-0.374877	0.317234	-0.163518	0	0	-0.383104	0.0453304	-0.216526	-0.0856446	-0.430047	0.47975	0.741058	0.932137	0	0	-0.30277	-0.423956	-0.121673	1.03124	1.5708	0	0
1.59	-0.209398	1.32527	-1.24561	0.810404	0.094919	0.955724	0.152328	-0.115358	-0.2318	1.2264	-0.249001	0	0	-0.246914	-0.0647202	-0.371731	0.309617	-0.157324	0	0	-0.387648	0.0519222	-0.212724	-0.116311	-0.389979	0.336756	0.739524	1.095	0	0	-0.286524	-0.427099	-0.121629	1.04303	1.5708	0	0
1.6	-0.225841	1.32332	-1.22247	0.811489	0.0859584	0.955989	0.167475	-0.11205	-0.243825	1.19962	-0.228298	0	0	-0.261147	-0.0706861	-0.367897	0.302822	-0.151992	0	0	-0.388185	0.0593787	-0.225056	-0.0934311	-0.416879	0.423773	0.739595	1.00293	0	0	-0.283346	-0.42394	-0.139193	1.05504	1.5708	0	0
1.61	-0.240719	1.32146	-1.20286	0.812336	0.0772002	0.956106	0.182583	-0.107707	-0.251013	1.169	-0.217372	0	0	-0.275039	-0.0761976	-0.366796	0.296626	-0.148117	0	0	-0.391002	0.0660703	-0.228131	-0.0932899	-0.417396	0.416878	0.741381	1.01166	0	0	-0.272126	-0.424261	-0.145326	1.06637	1.5708	0	0
1.62	-0.25087	1.3176	-1.18929	0.812993	0.0686329	0.95618	0.192575	-0.102157	-0.256867	1.13065	-0.210733	0	0	-0.291263	-0.0812675	-0.3674	0.290447	-0.144342	0	0	-0.396714	0.0715851	-0.229565	-0.0931669	-0.417834	0.409512	0.744245	1.02081	0	0	-0.261065	-0.426849	-0.148676	1.07927	1.56814	0	0
1.63	-0.259324	1.31448	-1.17687	0.81357	0.0600123	0.956089	0.200483	-0.0959076	-0.26141	1.08539	-0.209039	0	0	-0.306379	-0.086077	-0.366566	0.284912	-0.140374	0	0	-0.401612	0.0761681	-0.230985	-0.0932656	-0.417068	0.401771	0.745561	1.0306	0	0	-0.249757	-0.430233	-0.150544	1.09162	1.56572	0	0
1.64	-0.267841	1.31419	-1.16429	0.814018	0.0512199	0.955688	0.208523	-0.0894623	-0.263863	1.03442	-0.206114	0	0	-0.317911	-0.0902947	-0.365685	0.281121	-0.13768	0	0	-0.402472	0.0793755	-0.231889	-0.0925347	-0.417936	0.402601	0.744992	1.0294	0	0	-0.23726	-0.434669	-0.148418	1.10109	1.56173	0	0
1.65	-0.272793	1.31296	-1.15549	0.814351	0.0424675	0.955259	0.211675	-0.082159	-0.264186	0.975771	-0.209341	0	0	-0.330686	-0.0940072	-0.3643	0.277157	-0.133208	0	0	-0.40517	0.0818261	-0.234165	-0.0883117	-0.421077	0.414123	0.744498	1.018	0	0	-0.226779	-0.437809	-0.150428	1.11197	1.56003	0	0
1.66	-0.277326	1.31242	-1.14809	0.814532	0.0336448	0.9547	0.211815	-0.0739801	-0.261472	0.9107	-0.213433	0	0	-0.342708	-0.0972859	-0.363727	0.273911	-0.128841	0	0	-0.407356	0.0835099	-0.235466	-0.0843824	-0.42333	0.424483	0.743516	1.00679	0	0	-0.216288	-0.441477	-0.150789	1.12175	1.559	0	0
1.67	-0.282664	1.31226	-1.14043	0.814613	0.0248	0.954069	0.20825	-0.0653437	-0.258169	0.836688	-0.219302	0	0	-0.353933	-0.100752	-0.363895	0.271425	-0.12472	0	0	-0.409265	0.0849947	-0.235816	-0.0806932	-0.424721	0.433636	0.741818	0.996181	0	0	-0.205108	-0.445299	-0.149668	1.12997	1.55989	0	0
1.68	-0.287652	1.31259	-1.13357	0.814585	0.0157512	0.953365	0.200525	-0.0562748	-0.255959	0.754963	-0.227862	0	0	-0.364509	-0.104387	-0.36386	0.269947	-0.119122	0	0	-0.413242	0.0860505	-0.231364	-0.0993678	-0.395437	0.341806	0.738811	1.10024	0	0	-0.190249	-0.449808	-0.143668	1.13851	1.55897	0	0
1.69	-0.291169	1.31199	-1.12775	0.81452	0.00674855	0.952439	0.188066	-0.0464425	-0.252351	0.667921	-0.232324	0	0	-0.376053	-0.107864	-0.365846	0.268953	-0.112631	0	0	-0.413743	0.0877642	-0.240475	-0.0663917	-0.432087	0.47387	0.73883	0.955985	0	0	-0.187917	-0.448212	-0.156773	1.14778	1.56032	0	0
1.7	-0.296091	1.31473	-1.12124	0.814252	-0.0026417	0.951195	0.176196	-0.0375144	-0.246675	0.577188	-0.233277	0	0	-0.383504	-0.110704	-0.367771	0.270418	-0.106215	0	0	-0.412526	0.08751	-0.240636	-0.0670795	-0.427809	0.46819	0.736116	0.963852	0	0	-0.178324	-0.450625	-0.155954	1.15466	1.55965	0	0
1.71	-0.298651	1.31914	-1.11701	0.813845	-0.0123869	0.949642	0.162043	-0.0298366	-0.24152	0.481429	-0.235628	0	0	-0.389979	-0.112416	-0.36906	0.27208	-0.0997347	0	0	-0.40881	0.0857785	-0.241128	-0.06946	-0.422965	0.461288	0.733808	0.971742	0	0	-0.169788	-0.45383	-0.153187	1.16016	1.55881	0	0
1.72	-0.294891	1.3207	-1.1204	0.813138	-0.0221621	0.948129	0.142106	-0.0198965	-0.245513	0.369565	-0.261432	0	0	-0.400986	-0.113614	-0.371819	0.272894	-0.0929374	0	0	-0.40886	0.0830811	-0.239937	-0.073942	-0.417647	0.449447	0.734876	0.984258	0	0	-0.161507	-0.457772	-0.150039	1.16693	1.55613	0	0
1.73	-0.291834	1.327	-1.12502	0.812125	-0.0322307	0.946075	0.127266	-0.0127846	-0.231502	0.269157	-0.276687	0	0	-0.407649	-0.11234	-0.374609	0.27424	-0.0856022	0	0	-0.403349	0.0774585	-0.237783	-0.0789435	-0.411521	0.438308	0.734397	0.996639	0	0	-0.154443	-0.461349	-0.1467	1.1721	1.55454	0	0
1.74	-0.28456	1.3396	-1.13527	0.810608	-0.0428183	0.943193	0.118139	-0.012535	-0.205311	0.17437	-0.280386	0	0	-0.409247	-0.107323	-0.376191	0.275249	-0.0776912	0	0	-0.389952	0.0667535	-0.236755	-0.0823045	-0.407339	0.440903	0.732367	0.994876	0	0	-0.151404	-0.465166	-0.145453	1.17674	1.55509	0	0
1.75	-0.279949	1.34985	-1.14297	0.809202	-0.0532884	0.940619	0.103237	-0.00897074	-0.169994	0.0739936	-0.305082	0	0	-0.412433	-0.103977	-0.37813	0.276382	-0.070248	0	0	-0.378729	0.0584269	-0.235618	-0.0815521	-0.407646	0.457358	0.730783	0.977041	0	0	-0.148084	-0.468527	-0.143427	1.17971	1.55359	0	0
1.76	-0.274223	1.36008	-1.15132	0.808051	-0.0637972	0.938031	0.0937368	-0.00843002	-0.14561	0	-0.315325	0	0	-0.414867	-0.10058	-0.379875	0.278323	-0.0648065	0	0	-0.368048	0.0508715	-0.235289	-0.0820645	-0.406398	0.466304	0.729621	0.967956	0	0	-0.145711	-0.470386	-0.142931	1.1826	1.55342	0	0
1.77	-0.26991	1.3706	-1.15801	0.80712	-0.0743612	0.935495	0.103764	-0.010506	-0.162423	0	-0.299428	0	0	-0.41554	-0.09768	-0.382195	0.28241	-0.0579153	0	0	-0.359538	0.0442987	-0.218708	-0.12737	-0.354423	0.291742	0.729937	1.15283	0	0	-0.124478	-0.48327	-0.104514	1.17911	1.53208	0	0
1.78	-0.275639	1.38134	-1.15308	0.806399	-0.0850883	0.932935	0.116478	-0.0102969	-0.187438	0	-0.257353	0	0	-0.412228	-0.0988233	-0.388463	0.294482	-0.0475192	0	0	-0.34443	0.0399803	-0.235867	-0.0831735	-0.401269	0.476466	0.722362	0.960296	0	0	-0.141925	-0.467481	-0.146478	1.18452	1.56507	0	0
1.79	-0.274961	1.38744	-1.15464	0.805635	-0.0956223	0.930898	0.121264	-0.00855388	-0.207937	0	-0.245605	0	0	-0.414867	-0.0996297	-0.391157	0.302103	-0.0456804	0	0	-0.338473	0.0370001	-0.235794	-0.0848469	-0.398467	0.475321	0.721692	0.962331	0	0	-0.139444	-0.466706	-0.146224	1.18537	1.56661	0	0
1.8	-0.281249	1.39074	-1.14958	0.80487	-0.105839	0.929325	0.123457	-0.00905605	-0.215728	0	-0.234067	0	0	-0.418951	-0.102496	-0.392748	0.310342	-0.0449252	0	0	-0.336118	0.0368781	-0.235194	-0.0845368	-0.396151	0.474492	0.721162	0.964483	0	0	-0.136372	-0.465709	-0.145686	1.18539	1.56785	0	0
1.81	-0.280394	1.39333	-1.14925	0.804298	-0.116558	0.927796	0.123789	-0.00625315	-0.227606	0	-0.23324	0	0	-0.424484	-0.10513	-0.391948	0.31726	-0.0455398	0	0	-0.333775	0.0362023	-0.235818	-0.0882079	-0.391746	0.465019	0.721117	0.974944	0	0	-0.134016	-0.465641	-0.142561	1.18516	1.56642	0	0
1.82	-0.288284	1.39276	-1.1395	0.803823	-0.127342	0.926782	0.122363	-0.000648621	-0.22974	0	-0.236964	0	0	-0.431948	-0.111087	-0.391286	0.325053	-0.0465442	0	0	-0.334026	0.0390781	-0.237655	-0.0876185	-0.390916	0.468263	0.720475	0.972198	0	0	-0.132927	-0.463445	-0.142406	1.18404	1.56718	0	0
